<svg width="100" height="25" viewBox="0 0 100 25" xmlns="http://www.w3.org/2000/svg">
  <!-- OpenAI Logo - Complex geometric symbol -->
  <g transform="translate(5, 2.5)">
    <!-- Central interwoven geometric symbol -->
    <path d="M12.5 12.5C12.5 12.5 8.5 8.5 12.5 8.5C16.5 8.5 20.5 12.5 20.5 12.5C20.5 12.5 16.5 16.5 12.5 16.5C8.5 16.5 8.5 12.5 12.5 12.5Z" fill="#000000"/>
    <path d="M12.5 8.5C12.5 8.5 16.5 12.5 16.5 12.5C16.5 12.5 12.5 16.5 12.5 16.5C12.5 16.5 8.5 12.5 8.5 12.5C8.5 12.5 12.5 8.5 12.5 8.5Z" fill="#000000"/>
    <path d="M8.5 12.5C8.5 12.5 12.5 8.5 12.5 8.5C12.5 8.5 16.5 12.5 16.5 12.5C16.5 12.5 12.5 16.5 12.5 16.5C12.5 16.5 8.5 12.5 8.5 12.5Z" fill="#000000"/>
    <path d="M16.5 12.5C16.5 12.5 12.5 16.5 12.5 16.5C12.5 16.5 8.5 12.5 8.5 12.5C8.5 12.5 12.5 8.5 12.5 8.5C12.5 8.5 16.5 12.5 16.5 12.5Z" fill="#000000"/>
    <path d="M12.5 8.5C15.5 6.5 18.5 9.5 18.5 12.5C18.5 15.5 15.5 18.5 12.5 16.5C9.5 18.5 6.5 15.5 6.5 12.5C6.5 9.5 9.5 6.5 12.5 8.5Z" fill="#000000"/>
    <path d="M12.5 16.5C15.5 18.5 18.5 15.5 18.5 12.5C18.5 9.5 15.5 6.5 12.5 8.5C9.5 6.5 6.5 9.5 6.5 12.5C6.5 15.5 9.5 18.5 12.5 16.5Z" fill="#000000"/>
  </g>
  <!-- OpenAI Text -->
  <text x="30" y="17" font-family="Arial, sans-serif" font-size="14" font-weight="bold" fill="#000000">OpenAI</text>
</svg>